<?xml version="1.0" encoding="UTF-8" standalone="no"?>
<svg xmlns:rdf="http://www.w3.org/1999/02/22-rdf-syntax-ns#" xmlns="http://www.w3.org/2000/svg" version="1.1" xmlns:cc="http://creativecommons.org/ns#" xmlns:dc="http://purl.org/dc/elements/1.1/" viewBox="0 0 184 202">
 <g transform="translate(1.4134 1.2933)">
  <g>
   <path d="m121.12 57.709c-0.47665 1.5766-0.50925 3.0759-0.30962 4.4936 0.19962 1.9188 1.6255 2.9659 1.6255 2.9659 0.59073-1.6663 1.6418-1.7274 2.0166-3.3896 0.42777-2.7174-0.56221-2.9659-0.59073-4.4936-0.0285-1.5278 0.28111-3.3325 0.28111-3.3325s-2.5422 2.1755-3.0229 3.7562"/>
   <path d="m77.65 60.683c-0.56221 2.0737 0.26074 4.0292 1.2059 5.0028 0.94109 0.9859 3.5403 2.3018 3.5403 2.3018s-1.8455-1.8496-1.8007-4.518c0.02852-1.9922 2.7825-3.0514 2.1388-5.7606-0.63962-2.7092-2.5625-4.1025-2.5625-4.1025s0.64369 1.5848 0.34221 2.864c-0.52962 1.5766-2.2977 2.147-2.864 4.2125"/>
   <path d="m109.82 71.97c-4.4623-9.5553-5.418-2.8299 0 0m-65.893 24.053-0.028 0.244m27.279-16.716c0.45221-6.1802-0.02852-10.6-2.2285-15.318-1.5766-3.8581-4.4936-7.5206-8.3802-9.5698-0.53777-0.2974-1.1611-0.53369-1.6948-0.94516-0.53369-2.147-1.4829-4.2532-3.2959-5.8054-1.7844-1.5074-3.9558-2.31-6.2699-2.424-6.5713 0.43999-11.493 3.8703-15.453 8.0461l-0.35444 0.11407c-2.8273 0.36258-5.4102 1.3403-7.7283 2.9455-5.7362 5.2351-12.1 9.6839-19.286 11.941-0.06111 0.0937-0.06111 0.30555 0 0.39111 2.6766 2.0818 6.775 2.0207 9.9527 1.0429 4.2532-1.6989 6.5632-2.5381 10.332-5.4836 0.74146-0.50924 1.4666-1.54 1.6703-1.3892-0.79035 1.3892-2.1796 3.9884-2.6481 6.4939-0.46036 2.5096-3.0555 4.4569-6.1721 6.551 0.41962 0.45629 1.5318-0.19148 1.9066-0.28518 0.37073-0.0937 2.4159-0.73332 4.5914-2.0818 2.1796-1.3444 2.7744-2.0614 4.2899-3.4547 3.6014-3.7888 6.2943-8.4291 7.7772-11.122 3.801-0.39925 10.719-2.9699 12.935-1.5888l0.61517 0.33814c-0.46036 0.74147-1.2181 2.3262-1.2181 2.3262l-1.7763 4.1066s-3.4384-0.42777-5.0558-1.1366c-3.5403-1.5033-4.404-3.2307-4.404-3.2307s-0.26888 2.3303 0.03259 3.3896c0.30555 1.047 1.4707 2.5503 2.4118 3.2307 0.94109 0.68443 4.5221 2.5992 4.7421 3.3896-0.27703 0.73739-3.0759 10.755-4.1147 15.933-0.02852 0.14666-0.12222 0.5011-0.35444 0.35443-2.1714-2.7703-4.3021-4.9092-8.205-5.5325-3.9029-0.60702-8.0298 2.2326-10.82 5.7443-2.257 2.7581-3.4262 6.7221-3.4466 7.6224-0.17111 4.4121-4.2329 5.2554-4.2329 5.2554-2.4892 0.14667-4.0699-1.8496-4.0699-1.8496s-0.82294 4.408 3.1614 5.9195c0.96146 0.27296 3.2388-0.10592 4.7462-2.8803 0.75369-1.7396 0.84331-3.5118 1.0755-4.8643 0.22814-1.3566 0.82294-2.5707 1.6703-3.8581 2.2-2.8274 5.4999-4.2532 9.0972-3.5973 4.6647 1.0104 7.7528 5.2595 10.845 8.6165 0.11407 0.0896 0.2037 0.33815 0.02852 0.41148-1.1326-0.11-2.2285-0.38296-3.4466-0.38296-3.8621-0.0856-7.1295 1.3363-10.132 3.3366-4.518 2.754-7.2232 7.6346-7.7895 12.739 0.06518 0.15481-0.02444 0.57036 0.26888 0.45221 2.3466-5.178 7.6387-8.6817 13.342-8.7672 4.0129-0.20777 7.488 1.4544 10.845 3.0636 0.11815 0.11407 0.14666 0.26481 0 0.37888-3.2388 0.92072-6.5184 1.8537-9.0605 4.3999-2.5381 2.534-3.3325 5.9643-3.4181 9.5657 0.11814 0.35444-0.14666 1.0429 0.32592 1.1611 2.1388-4.5425 6.7465-8.3272 11.827-8.7061 0.65184 0.0611 1.5155-0.15074 2.0492 0.2974l-0.05703 0.11814c-2.8559 1.8129-5.7077 4.738-7.0439 7.2761-1.3363 2.5462-3.1451 3.2755-3.0596 3.361 3.2959 0.53369 4.3958 0.4237 7.4839-0.70072 1.2833-0.52962 3.467-3.1696 4.9743-3.4629 0.35851 0.057 2.4851-0.60702 3.691-0.0774 0.82702 0.66813-2.2611 3.9884-2.864 3.8418-5.4999-0.0774-6.3269 1.0552-7.8302 3.2347-1.5074 2.1837-3.1981 4.3836-5.9602 5.2758-0.62332 0.33-1.3363 0.44407-1.9351 0.80665-0.02037 0.23222 5.7362 0.14667 7.9932-0.83924 2.0533-0.68035 3.5362-2.6155 5.6465-2.9984 0 0 0.50517 2.2-3.2633 5.4347 0.0937 0.20778 4.0618-0.50924 5.728-2.0288 12.901-9.1516 4.0598-2.3611 1.7314 3.8295-0.27296 2.0126-1.8944 6.4491-1.6826 6.7221 0.21592 0.27295 3.524-2.6603 5.4184-3.6299 1.8944-0.98183 1.4137-5.6262 2.1429-6.8198 3.2147-3.5048 3.1557 0.69578 1.7518 3.5932 2.444-1.2494 5.5248-5.0448 3.4751 1.4952-0.97368 2.7011-2.1633 4.4936-2.1633 4.4936s3.031-1.5685 5.0925-4.5547c2.0574-2.974 2.5992-4.6566 2.7581-5.5732 0.72517 0.98183 0.41962 0.90035 1.0348 2.5992 0.70072 1.9474 0.4848 3.744 0.4848 3.744s1.1937-0.81887 1.8455-3.141c0.52147-1.874 0.41962-2.1307 0.35444-2.1551 2.3751-0.11407 1.7803 4.0658 1.7803 4.0658s1.7396 0.13851 1.9555-2.4118c-0.15074-0.90443 9.8346-0.67628 12.014 2.1429 2.1877 2.8274 2.7866 2.7948 3.9518 3.3977 1.1692 0.59481 3.3162 0.48888 5.1862 0.95739 1.7437 0.28111 5.064 1.7803 6.3391 2.6196 1.7762 2.09-2.8722 9.4842-4.8073 11.965-0.04074 0.057-0.08963 0.1181-0.12629 0.163 0.13444-0.073 0.27296-0.1386 0.4074-0.2241 3.0555-1.6703 7.3169-5.2554 7.8384-11.379 0.0244-0.32185 1.9596-0.23222 2.2611 0.14666 1.2263 1.1285 1.4666 3.9518 2.3303 5.6547 0.87183 1.6907 4.9743 3.0433 6.9461 1.7152 0 0 1.7926-0.9615 1.2996-2.2-0.79035 0.5255-1.2752 0.5948-2.2529 0.6885-0.98183 0.086-1.32-0.2404-2.1103-0.7374-0.79035-0.4929-0.9085-0.6396-1.4259-1.5725-0.52555-0.9452-0.49703-3.2429 0.17925-3.9192 0.68036-0.68036 2.4525-1.21 4.2532-0.98183 1.8129 0.22814 1.7152 1.5196 1.7152 1.5196s0.52962 1.9188-1.0511 2.4729c1.2344 0.7455 2.4444-0.094 2.4444-0.094s0.47666 0.6518-0.12222 2.758c2.0696 0.053 2.5911-2.1388 2.5911-2.1388s0.49295 0.1915 0.5622 0.4115c0.45629-0.1874 0.41555-1.0144 0.41555-1.0144s0.41147-0.11 0.60295 0.3055c0.86776 0.2607-0.19148-6.1435-0.52554-6.8565-0.33814-0.71295-5.9521-4.9336-6.9706-4.9254-1.0144 0.008-2.4444 0.96961-3.9884 1.6907-1.54 0.71294-3.4262 2.481-5.5691 2.037-1.2833-1.104-4.3429-0.63554-4.3429-0.63554l-2.3385-0.60295s-2.1103-0.9248-2.1674-1.2996c-0.04889-0.37888 0.43185-1.2996 0.76184-2.5422 0.32184-1.2589 0.21592-1.9555 0.70072-2.3344 0.48888-0.37481 1.7355-0.32185 2.6603-0.86776 2.1473-1.9404 3.0191-1.8229 4.7258-0.53777 1.6377 1.2426 7.4146 3.141 10.303 3.4873 2.8925 0.34222 6.3228 0.33407 7.321 0.28111 0.99812-0.053-0.73739-1.4585-0.8922-1.7518 0 0 6.3106 1.7518 10.527 2.0492 4.2206 0.30555 12.051-0.14666 14.039-2.1022 0 0-1.3363-0.37888-1.8781-0.82701l0.0937-0.0815c2.1103-0.54184 12.98 1.3526 11.236-3.5362-0.44814-0.52962-0.98183-0.32999-1.4259-0.65591 0.11815-0.15481 12.43-2.9251 9.2724-3.7888-2.591-0.21185-11.252-1.8618-14.964-2.8803-3.7073-1.0144-8.645-2.4851-11.142-3.3447-0.28925-0.11815-0.71702-4.3103-0.27295-4.0862 0.74554 1.0185 1.2914 1.707 2.4281 2.3874 2.1959 0.59481 5.4184 0.65184 7.0032 0.65999 1.5929 0 2.0777-2.257 2.6318-3.5566-0.23629 0.28518-1.0389 0.74554-1.2507 0.74554-1.5033 0.37481-4.9703-0.12629-5.3817-0.2811-0.41962-0.14667-1.4096-1.8007-1.1244-2.64 0.28518-0.83516 1.98-1.8048 1.98-1.8048s2.0207-0.19148 2.7174 0c0.69665 0.17926 2.2936 1.1529 2.5299 1.597 0.23222 0.43592 0.81073 1.3892 0.76184 2.204 0.87998-1.3892 0.29333-2.2122 0.65591-2.367 0.1874 0 0.64776 0.13852 0.73739 0.64777 0.39925-0.20778 0.18333-2.1959 0.37073-2.4607 0 0 0.37481 0.23629 0.69666 0.46036 0.26073-0.33814 0.20777-2.2285-0.0896-2.9414-0.30555-0.72109-2.147-2.5177-2.4851-2.7581-0.34629-0.21592-0.57036-0.25666-0.57036-0.25666s-0.0367-0.21185 0.64776-0.99406c0.67628-0.79035 4.5099-1.4707 5.6995-2.3181 0.6722-0.50925-0.0611-0.45222 0.73739-1.2466 0.79035-0.78628 4.2899-1.0674 5.3288-5.5406-9.0646 2.4892-14.711 3.2877-22.052 3.2877-7.3372 0-17.396-0.9085-19.25-2.1226-0.68035-0.54184-0.97368-1.6907-0.74554-2.7744 0.22407-1.0918 1.54-1.8659 2.3751-2.2244 0.60702-0.11407 0.33406 2.2611 0.33406 2.2611s4.408-2.9333 6.555-3.7277c2.1429-0.79035 8.922-1.6907 8.922-1.6907-2.0329 2.4851-0.68443 5.3573 0.97775 5.4184 0.71702 0.0407 3.691 0.94109 7.048-2.4485 0.71295-0.71295 1.8822-1.32 1.8822-1.32 1.2792 0.30147 2.147 0.33814 2.147 0.33814l2.807-0.0693c-1.9026-0.94924-3.0636-1.4137-3.1084-2.2325 0.0855-0.0774 1.8414 0.71295 2.0696 0.22814-0.86368-0.49295-1.32-1.1978-1.32-1.1978s2.5585-0.19555 5.0517 0.82702c-1.5481-2.6359-2.2448-2.5299-3.471-3.2796-0.62332-0.35036-1.8048-0.71295-2.3303-1.0959-0.30555-0.2974 0.0774-1.5155-0.40333-2.3466-1.1203-2.8274-2.591-4.074-4.1758-4.8643-1.5848-0.79035-2.7051-0.90035-3.7807-0.79035-1.0755 0.12222-2.0736 0.48073-2.2651 1.4137-0.18333 0.94516 0.46443 1.4014 0.87591 1.8659 0.0326 0.0896-0.87591 0.057-1.7722-0.0815-0.91257-0.14259-3.8906 0.26889-5.8747-0.65183-3.304-1.0429-6.4328-7.9076-6.9828-8.8691 0.0652 1.5278-0.73739 2.5829-0.73739 2.5829-1.0144 0.24037-3.467-3.8295-3.467-3.8295-0.22814 2.0981 0.10592 4.5792 0.10592 4.5792-2.5585-2.2448-3.1533-5.7647-3.1533-5.7647-2.1022 0.79035-0.11407 5.5162-0.17111 5.5406-1.6337-2.4403-2.6033-3.0555-4.0169-6.8361-1.4096-3.7807-1.6744-6.0825-1.8048-6.7791 0 0 0.85146-1.0185 1.2426-1.4503 0.39925-0.42777 1.6581-1.1814 1.6581-1.1814s-0.97776-0.24037-1.8048-0.11815c-0.83924 0.13852-1.5481 0.32185-1.5481 0.32185s-0.16703-0.90035 0.26073-4.8277c-2.6277 1.1163-3.6299 4.9173-3.8173 6.8117-1.6214 1.3689-2.481 2.7744-2.481 2.7744s-0.13852-2.2529-1.5278-3.8866c-1.3933-1.6459-2.3222-1.7111-3.2429-3.1655-0.92072-1.104-0.81887-4.2329-0.88405-4.1514-0.14667 0.74553-0.84332 1.6988-0.78628 3.1084-0.0245 1.4381 0.30147 1.9392 0.84331 3.8458 0.54184 1.9026 0.37481 4.0455-0.90035 6.1558-3.0745 5.7874-0.86145-1.5376-0.83109-3.1533 0-2.5992-0.4848-4.4895-2.4077-6.6324-0.62-0.573-1.806-1.966-1.806-1.966 2.2774 5.0517-0.30555 10.319-0.30555 10.319s-0.74961-2.9048-2.2529-4.3673c-1.5074-1.4748-3.1655-2.7133-3.1655-2.7133 1.434 3.907 0.47666 9.085 0.14666 9.415-0.5011-0.45221-1.43-2.3344-2.5951-3.4344-1.1652-1.0878-2.8029-1.7192-2.8029-1.7192s0.88405 2.5503 0.96146 4.5506c0.06926 1.9922-0.90442 3.4262-0.98183 6.2454-0.07333 2.8273 4.9703 8.1317 4.9703 8.1317-4.7177 0.27703-10.963-6.5021-10.963-6.5021 0.43184 5.8502 7.0887 10.466 7.0887 10.466-1.2303 0.32999-10.967-6.0743-12.279-6.7262 1.3403 5.8014 7.5206 11.049 7.5206 11.049-1.5196 0.65591-5.7932-1.0959-5.7932-1.0959 3.3529 7.1661 10.788 6.4817 10.788 6.4817 0.0041 1.0878-9.8183 0.19555-9.8183 0.19555 2.9251 3.2022 10.136 3.744 10.136 3.744-1.7885 0.82702-7.3169 0.59073-7.3169 0.59073 0.8922 1.3118 3.084 2.2 4.0618 3.0392-1.1896 0.35036-3.8907 2.4077-6.3962 4.8154-2.5055 2.4118-5.1454 9.8468-9.6961 9.1909-2.9251-0.0489-8.1317-7.3739-1.0552-19.123 3.0107-5.121 3.4588-7.0806 3.9192-13.257"/>
   <path d="m138.98 3.2318h-91.469l-44.19 41.489 2.4848 21.661 0.32184-0.0774c6.0724-1.907 12.366-5.846 18.787-11.705 2.4444-1.6907 5.178-2.7825 8.1439-3.2266 1.1692-1.2629 2.5585-2.4933 4.0944-3.6014l2.2363-9.1831 102.72-0.24847 1.2424 15.852 35.582 1.7394-0.49696-14.572z"/>
   <path d="m142.61 161.6-103.47-0.75-1.989-24.57c-0.87591-0.0163-1.6989-0.0693-2.3711-0.14259-2.2611-0.22815-4.3021-2.0329-4.3021-2.0329-0.01222-0.0245 3.0636-0.57443 5.4428-2.0451 0.47666-0.2974 0.87591-0.57851 1.2303-0.85146v-3.6177c-0.4074-0.0611-0.83924-0.13444-1.3037-0.22814-1.2059-0.19963-2.1959-1.0144-2.1959-1.0144s-0.25259 0.44407-0.93294 2.0329c0 0-0.79443-1.104-1.3037-2.6074-0.50925-1.4911-0.67628-3.8825-0.67628-3.8825 0.11814-4.7992 1.4381-8.3924 4.021-10.983 0.74961-0.75369 1.5563-1.3689 2.3914-1.9026v-2.3059c-0.85554-0.15481-1.7274-0.22407-2.6277-0.17518-4.9621 0.0693-9.2602 2.5422-12.092 7.5206-1.5848 3.5158-2.3751 6.5754-2.3751 6.5754-0.15481 0.008-0.94516-3.8744-1.0144-7.8098-0.23222-5.4388 3.6462-11.546 8.4698-14.507 3.2999-2.1836 6.4124-3.3447 9.639-3.577v-0.54998c-1.87-1.9433-3.8866-3.6218-6.2943-4.1473-2.6766-0.4848-5.2758 0.55406-7.0765 2.864-0.70887 1.104-1.1203 2.0207-1.2752 2.9496-0.04889 0.27703-0.08963 0.57443-0.13037 0.90035-0.17518 1.2629-0.38703 2.8355-1.0878 4.4488-2.1225 3.9395-5.4591 4.5506-7.2028 4.0332-4.5788-1.71-4.9943-6.145-4.6032-8.256l0.83109-4.3918 2.7703 3.4955s0.92072 1.0796 2.2081 1.0918c0.6111-0.18333 2.3955-0.91258 2.4892-3.2836 0.02852-1.4707 1.4055-5.8258 3.911-8.8854 3.7481-4.7095 8.5228-7.1417 12.743-6.4736 1.0063 0.15888 1.8985 0.4074 2.7173 0.72109v-13.888c-1.3811 1.7355-4.1147 5.451-5.1536 6.278-0.04074 0.0326-3.9273 2.7948-5.3695 3.6625-1.4422 0.86776-5.4021 1.7559-6.4695 1.8781-1.0633 0.13037-3.0473 0.0733-3.0473 0.0733 1.1652-1.2833 2.6929-3.2103 2.6929-3.2103s1.8618-2.3833 3.8214-5.2391c0 0-0.79443 0.65184-6.1558 2.7785-3.523 1.096-8.2693 1.304-11.667-1.116l-1.3997 83.826 41.705 44.204h92.873l39.216-39.84v-13.995l-35.589-0.24848z"/>
  </g>
  <g fill="#fff">
   <path d="m136.35 116.72c-0.15481 0.057-0.76184 0.42369-0.7211 0.44406-0.0489 0.16704 1.324 0.63147 1.4422 0.57444 0.10593-0.057-0.053-0.95332-0.0896-1.1366-0.0326-0.18333-0.47666 0.053-0.63147 0.11814"/>
   <path d="m106.26 69.067c0.59073 2.7336 3.5525 2.9048 3.5525 2.9048-1.324-0.5948-3.0759-4.1229-2.5422-7.0072 0 0-1.5807 1.2792-1.0104 4.1025"/>
   <path d="m53.552 77.891c-1.0552-2.2529-1.377-1.9881-1.377-1.9881s-1.7844 3.2714-2.8396 6.8891c-1.0878 3.2184-0.98183 7.8302-0.60702 10.319 1.0552 4.3592 0.9859 5.948 3.5444 9.7857-0.15481-2.7336-1.43-9.3335-0.52962-13.412 0.90442-4.0577 3.467-8.7306 1.8088-11.595"/>
   <path d="m51.32 49.779c-0.87998-1.0959-2.4159-1.8822-3.1084-1.9026-1.2059-0.0937-2.9699 0.93295-3.7114 1.6663-0.74146 0.74147-1.9514 2.1388-1.76 2.6929 0.46036 0.65183 2.8722 0.0611 5.0069 0.0978 2.0655 0.0285 4.1758 0.74147 4.5506 0.0896 0.22814-0.4237-0.0937-1.5563-0.97776-2.644"/>
   <path d="m61.99 70.173c-0.59073-2.4036-1.5726-4.6688-2.7907-6.771-0.17926-0.26889-0.65591-0.86369-0.92072-0.26889-0.56221 1.6052-1.5114 3.0881-2.257 4.5751-0.17926 0.2974-0.32999 0.68443-0.03259 0.95331 0.94924 0.5948 3.247 3.0514 4.0414 8.0869 0.79035 5.0273-0.33814 10.108-0.33814 10.108s4.1758-7.2884 2.2977-16.683"/>
   <path d="m111.89 137.78c-0.99405 0.59887-1.7314 1.4707-2.8192 1.0633-2.1918-0.89221-4.2614-0.62332-4.2614-0.62332s-2.4648-0.32592-2.6399-0.84332c-0.17111-0.50925 0.24036-0.70072 0.35036-1.1163 0.13037-0.52554-0.0611-0.91665 0.22815-1.214 0.28925-0.28925 1.4218-0.28925 2.2-0.74961 0.6722-0.39518 1.1855-0.8922 1.6011-1.3037 0.14667-0.13851-0.0448-0.057 0.86776 0.6274 1.1774 0.8922 4.2166 2.2855 6.8769 2.8599-0.22814 0.11408-1.9188 1.0063-2.4036 1.2996m12.556-76.004c-0.37481 1.6622-1.43 1.7233-2.0166 3.3896 0 0-1.4259-1.047-1.6255-2.9659-0.19963-1.4177-0.17111-2.917 0.30962-4.4936 0.48073-1.5807 3.0229-3.7562 3.0229-3.7562s-0.30962 1.8048-0.28111 3.3325c0.0285 1.5277 1.0185 1.7762 0.59073 4.4936m-5.5162 0.32184c0.0693 0.63147 0.51739 1.7152 0.51739 1.7152l-0.34221 0.33814c-0.97776-2.6277-1.5766-5.1128-1.764-6.168-0.0367-0.20777 2.1633-1.7029 2.1633-1.7029s-0.16703 0.47665-0.1874 0.51739c-0.52147 1.7152-0.64369 3.4751-0.38703 5.3002m-34.348 4.3755c-0.52962-0.30555-1.5277-1.8292-1.5074-3.2755 0-0.19148 1.5848-2.4811 1.9229-3.3284 0.15481 0.65999 0.39925 1.597 0.41962 2.204 0.02444 0.68036-0.7048 3.6014-0.83517 4.3999m-2.1877 1.5114s-2.5992-1.3159-3.5403-2.3018c-0.94516-0.97368-1.7681-2.9292-1.2059-5.0028 0.56221-2.0655 2.3344-2.6359 2.864-4.2125 0.30148-1.2792-0.34222-2.864-0.34222-2.864s1.9229 1.3933 2.5625 4.1025c0.64369 2.7092-2.1103 3.7684-2.1429 5.7606-0.04074 2.6685 1.8048 4.518 1.8048 4.518m-5.3858 13.444-3.4018-1.3974c0.0041-0.13852 0.15481-3.1818 0.17111-4.3021 1.4055 3.801 3.2307 5.6995 3.2307 5.6995m0.67221 6.8239-4.7747-0.43999 3.5525 3.8906c0.26481 0.31777 0.82702 0.77406 0.82702 0.77406l-0.93702-0.0326s1.6744 2.2936 2.4077 3.1655c0.74146 0.87998 1.4463 1.4422 2.2692 2.0451-1.3729 1.0307-2.8273 2.3018-3.9925 3.4222-0.92479 0.90035-1.7681 2.2-2.6644 3.5851-1.544 2.3792-3.7073 5.3328-5.5936 5.0558-0.24444-0.0326-1.104-0.57036-1.7926-1.9962-0.80665-1.6826-2.1918-6.4247 2.4403-14.104 2.8762-4.8847 3.6095-7.4717 4.0658-12.593l1.654 3.4629c1.6907 3.0514 2.5381 3.7644 2.5381 3.7644m-40.532 31.94c0.74554-0.80665 1.6337-1.5807 2.6399-2.1103-0.84739 1.0144-1.5685 2.0492-2.0981 3.0514-0.17111 0.32999-0.35444 0.60295-0.54184 0.86776-0.67221 0.95331-1.3689 1.5196-1.6337 1.7029-0.34221 0.22815-0.84331 0.12222-0.9085 0.17111 0 0 0.92479-1.9311 2.5422-3.6829m16.618 11.92c0.58258-0.0489 1.157-0.15888 1.6826-0.27703-0.06926 0.14667-0.14666 0.27703-0.21592 0.39925-0.19555 0.19148-2.0411 1.267-2.4362 1.5278 0.11815-0.2037 0.77406-1.3526 0.96961-1.65m114.57-9.02c-2.1877-0.17111-8.4128-1.2629-13.982-3.0066l-1.9474-0.60295c1.3892-0.6274 2.1633-1.98 2.6766-2.8885 0.15481-0.27703 1.0511-1.9026 1.1733-2.2 0.12222-0.2974-0.83924-0.2974-0.57443-0.61924 0.22814-0.0611 0.44406-0.15074 0.65591-0.26074 1.5196-0.79443 0.80665-1.7477 1.2629-2.0981 0.19148-0.13852 0.33814-0.30147 0.44407-0.43592 0.9859-1.2792 0.35036-3.3203-0.11-4.4243-0.53777-1.2752-1.6907-2.204-1.6907-2.204 0.29332-0.0978 0.5948-0.19147 0.84738-0.26888 1.3485-0.42369 2.6196-0.82294 3.4914-1.4503 0.76998-0.57036 1.0796-1.4463 1.0796-1.4463 0.0937-0.0448 0.19556-0.0937 0.28926-0.13444 1.4503-0.65999 4.4651-2.037 5.4836-6.3799l0.76591-3.3325-3.2958 0.89628c-8.7917 2.4118-14.23 3.1451-21.572 3.2184-8.3068 0.0978-16.206-1.1366-16.206-1.1366 1.1733-0.7822 4.5669-2.9333 6.1476-3.5118 1.4096-0.52555 3.8988-1.1815 5.178-1.0348-0.0204 0.80664 0.14259 1.597 0.47666 2.3425 0.6885 1.5155 2.0288 2.4933 3.4384 2.5422 0.0285 0.008 4.9417 0.69258 8.6328-3.0433 0.35444-0.35444 0.53777-0.65999 0.7822-0.6111 0.98591 0.17925 1.6663 0.21999 1.874 0.22407l7.6428-0.17111-2.9577-2.4322 5.5732 2.2855-3.0433-5.2066c-1.4259-2.4281-2.3955-3.0596-3.6177-3.687-0.1874-0.10185-2.0655-0.54184-2.0574-1.0063 0.0122-0.53369-0.10999-1.21-0.44406-1.87-1.157-2.8396-2.7336-4.6403-5.1332-5.838-1.7274-0.86368-3.247-1.1733-4.9173-0.99405-3.0636 0.32184-3.744 1.65-4.2003 3.1533-1.104 0.0163-2.1959 0.14259-4.0332-0.52554-1.8414-0.65591-7.8628-11.13-7.9565-11.285 0 0-0.2811 1.7518-0.73739 4.0781-0.43999-0.58258-1.9107-2.8273-1.9107-2.8273 0.45221-0.7211 0.96146-1.8577 1.157-3.1084 0.31777-2.0492 0.008-3.1329-0.38295-4.1392-0.13444-0.36258-0.18333-0.49703-0.18333-0.72517-0.0285-1.3037 1.2059-8.5146 1.2059-8.5146s-4.4936 3.8458-5.9439 5.0925c-1.1489-0.28517-3.634-0.87998-4.4773-0.87998l0.17111-2.2325 0.38702-3.471-3.2103 1.3729c-3.2022 1.3729-4.4081 5.0884-4.8358 7.1498-0.32592-0.41147-0.66406-0.87998-0.66406-0.87998-0.78628-0.92072-1.4585-1.4463-1.9962-1.8618-0.45222-0.34629-1.0918-1.1163-1.2181-1.267-0.0774-0.14666-0.77405-2.4444-0.73331-5.6058-0.0407-1.1733-0.17111-3.4222-0.17111-3.4222s-3.6747 6.0458-3.7358 6.2006c-0.28518 0.7048-0.54999 1.7681-0.54999 1.7681s-1.3037-1.5481-2.4933-2.4892c-1.1896-0.94516-5.7932-3.8377-5.7932-3.8377l3.2388 6.7139c1.1407 2.1429 0.80258 3.7481 0.80258 3.7481-1.5929-1.5522-3.3896-2.921-3.4629-2.9781l-5.4958-4.1147 2.3588 6.4491c0.41555 1.1448 0.58665 2.4444 0.63147 3.6421-1.1733-0.92479-3.0351-1.8862-3.2429-1.9718 0 0-1.927-0.7822-3.137-1.2548-0.93702-1.5318-2.1022-2.5259-2.2774-2.6522 0 0-5.6343-4.0862-5.6302-4.0699l2.5381 6.4695c0.16703 0.43184 0.34629 1.2385 0.30148 1.4748-0.0937 0.28111-0.40332 0.5948-0.79035 0.99405-0.7048 0.71295-1.6622 1.7111-2.1062 3.3407-0.76998 2.7988 0.15074 5.398 2.1144 7.3617l0.68443 6.2821c-1.6092-0.85554-5.4388-2.9536-5.4388-2.9536-0.38703-2.5462-1.157-5.0436-2.2448-7.3576-1.8781-4.6199-5.341-9.0687-10.226-11.098-0.77406-2.5748-2.0003-4.5629-3.744-6.0458-2.0818-1.7763-4.6769-2.7825-7.655-2.9333-2.4077 0.057-4.8195 0.66813-7.105 1.6255-1.9066 0.81072-3.7195 1.8577-5.3654 3.0555-1.5359 1.1081-2.921 2.3344-4.0944 3.6014-2.9618 0.44406-5.6995 1.5359-8.1439 3.2266-6.4206 5.8584-12.715 9.7979-18.789 11.705l-0.32184 0.0774-3.5566 0.88405c0.7048 1.0715 3.2388 2.9862 3.2388 2.9862 0.10185 0.0774 0.22 0.13037 0.31777 0.2037 3.3977 2.4159 8.1439 2.2122 11.668 1.1163 5.3614-2.1266 6.1558-2.7825 6.1558-2.7825-1.9596 2.8599-3.8214 5.2432-3.8214 5.2432s-1.5277 1.9229-2.6929 3.2103c0 0 1.984 0.053 3.0433-0.0733 1.0715-0.12222 5.0314-1.0104 6.4736-1.8781 1.4422-0.87183 5.3288-3.6299 5.3695-3.6625 1.0389-0.82702 3.7684-4.5466 5.1536-6.278 0.47666-0.61517 0.80665-0.9859 0.83517-0.92072 0.64776 1.4014 1.8781 2.8355 2.8925 3.5647 0.15074 0.11 0.87591 0.54591 1.6377 1.0226 0.88813 0.54999 1.8455 1.1529 2.0166 1.3322-0.5011 1.8292-1.3322 5.0803-2.0166 7.6998-0.49703 1.9107-0.91257 3.4873-1.0674 3.9355-1.1733-1.1122-2.5585-2.0818-4.2981-2.7459-0.81887-0.31369-1.7151-0.56628-2.7173-0.72517-4.2206-0.66406-8.9954 1.7681-12.747 6.4776-2.5014 3.0596-3.8784 7.4106-3.911 8.8854-0.08963 2.371-1.8781 3.0962-2.4851 3.2796-1.2874-0.0122-2.2081-1.0878-2.2081-1.0878l-2.7744-3.4996-0.82702 4.3918c-0.3911 2.1144 0.024444 6.5469 4.6036 8.262 1.7437 0.5174 5.0803-0.0978 7.2028-4.0332 0.70072-1.6133 0.91257-3.1899 1.0878-4.4488 0.04074-0.32592 0.08148-0.6274 0.13037-0.90035 0.15481-0.92887 0.56628-1.8455 1.2752-2.9536 1.7966-2.3059 4.3999-3.3488 7.0724-2.864 2.4118 0.52554 4.4284 2.204 6.2984 4.1514 0.15888 0.1711 0.31777 0.33814 0.47666 0.50924-0.15889 0-0.31777 0.0245-0.47666 0.0407-3.2266 0.22815-6.3391 1.3892-9.639 3.577-4.8236 2.9577-8.702 9.0646-8.4698 14.503 0.06926 3.9395 0.85961 7.822 1.0144 7.8139 0 0 0.79035-3.0636 2.3751-6.5754 2.8314-4.9825 7.1295-7.4513 12.092-7.5246 0.89628-0.0489 1.7722 0.0244 2.6277 0.17518 0.99405 0.1711 1.98 0.44814 2.9455 0.79442-1.0022 0.41148-1.9922 0.9085-2.9455 1.5155-0.83517 0.52961-1.6418 1.1489-2.3914 1.8985-2.5829 2.5951-3.9029 6.1884-4.021 10.988 0 0 0.16703 2.3914 0.67628 3.8825 0.50925 1.5033 1.2996 2.6033 1.2996 2.6033 0.68036-1.5848 0.93702-2.0329 0.93702-2.0329s0.98998 0.81887 2.1959 1.0144c0.46443 0.0978 0.89628 0.16703 1.3037 0.23222 1.2303 0.17925 2.2203 0.23222 3.0066 0.21999-0.97776 1.3607-1.5929 2.3222-3.0066 3.3977-0.35444 0.26888-0.75369 0.54998-1.2303 0.85146-2.3792 1.4707-5.4551 2.0207-5.4428 2.0451 0 0 2.0411 1.8048 4.3021 2.0329 0.67221 0.0693 1.4911 0.12629 2.3711 0.14259 1.707 0.0244 3.6625-0.16704 5.3654-0.97776 0.37888-0.17518 0.74961-0.38703 1.1-0.63962 0 0 0.16296 1.0185-1.1 2.3874-0.2037 0.21592-0.43184 0.43999-0.70887 0.67628l0.70887 0.0815 1.8903 0.21592c1.0185 0.22 4.0373-0.40332 6.1721-1.6133-0.15888 0.34629-0.2811 0.7211-0.33407 1.1285-0.11815 0.86775-0.59888 2.4974-0.9859 3.797-0.7985 2.7092-1.2222 5.7932-1.2222 5.7932s3.9273-0.85961 5.8258-2.2774c1.0144-0.76999 2.2774-1.7152 3.0881-2.1307 1.1692-0.60295 1.8007-1.6826 2.1755-2.8884 0 0 1.5318-0.22 1.9881-0.3911-0.77813 1.8781-1.5766 3.1003-1.5807 3.1084l-4.3877 6.5713 7.0235-3.634c0.13852-0.0733 3.5158-1.8455 5.8421-5.2188 0.21185-0.30555 0.41555-0.59888 0.60702-0.89628-0.0041 0.16296-0.55406 4.7218-0.55406 4.7218l3.7114-2.53c0.14259-0.10592 0.55814-0.41962 1.0429-1.0104l1.6418 0.13445c1.2752 0.0896 3.1614-0.63555 3.8866-2.9048 2.3751-0.15074 7.6672 0.55406 8.6694 1.8455 2.0085 2.6114 2.9699 3.1777 4.2125 3.7603 1.0144 0.52147 2.6318 0.85146 3.8947 0.98997 0.73739 0.0896 1.5114 0.17519 2.3303 0.36666 1.4137 0.24037 4.9499 1.7029 4.958 2.0207-0.0204 0.72924-0.41147 2.6196-2.7947 6.8972-0.37073 0.6682-0.57036 1.0837-2.1755 4.0129 0 0 0.60295-0.1059 1.3852-0.2607 1.9392-2.4811 6.5836-9.8713 4.8073-11.961-1.2752-0.83924-4.5955-2.3385-6.3391-2.6236-1.87-0.46851-4.0169-0.36258-5.1821-0.95331-1.1692-0.60702-1.7681-0.57443-3.9558-3.3977-2.1796-2.8192-12.165-3.0473-12.01-2.1429-0.22 2.5503-1.9596 2.4077-1.9596 2.4077s0.59888-4.1799-1.7763-4.0658c0.06111 0.0244 0.16296 0.28518-0.35851 2.1592-0.64776 2.3222-1.8414 3.137-1.8414 3.137s0.21185-1.7926-0.48888-3.744c-0.61517-1.6988-0.30962-1.6133-1.0307-2.5992-0.16296 0.91664-0.7048 2.5992-2.7622 5.5773-2.0614 2.9822-5.0925 4.5547-5.0925 4.5547s1.1896-1.7966 2.1633-4.4977c0.97776-2.7092 0.27296-4.8195 0.27296-4.8195s-0.41555 1.1611-1.6663 2.1959c-1.2426 1.0307-2.0818 1.1285-2.0818 1.1285 0.60702-1.214 1.4014-3.2958 1.3118-5.1699-0.17926-0.23629-0.53369-0.0896-0.77406 0-0.80258 0.45221-1.5563 0.38703-2.2896 1.5766-0.72924 1.1937-0.24851 5.8421-2.1429 6.8198-1.8903 0.96961-5.2025 3.9029-5.4184 3.634-0.21185-0.27703 1.4096-4.7136 1.6826-6.7262 0.26888-1.9962 4.1718-3.194 4.9825-4.3266 0.81072-1.1407 1.4503-3.6666 1.1203-4.1758-0.33407-0.49295-2.7173 0.83109-4.901 0.83109-0.97776 0.0815-1.9514 3.0025-2.9333 3.8458-1.6663 1.5196-5.6343 2.2366-5.728 2.0288 3.7684-3.2347 3.2633-5.4347 3.2633-5.4347-2.1062 0.38296-3.5933 2.314-5.6465 2.9944-2.257 0.98591-8.0135 1.0755-7.9891 0.83924 0.5948-0.36258 1.3077-0.47665 1.9311-0.80665 2.7622-0.8922 4.4529-3.0922 5.9602-5.2758 1.5033-2.1796 2.3303-3.3081 7.8302-3.2348 0.60295 0.14667 3.691-3.1696 2.864-3.8377-1.2059-0.52962-3.3325 0.13037-3.691 0.0733-1.5074 0.2974-3.691 2.9333-4.9743 3.4629-3.0881 1.1244-4.1881 1.2385-7.4839 0.7048-0.08555-0.0896 1.7233-0.8148 3.0596-3.361 1.3363-2.5381 4.1881-5.4632 7.0439-7.2802l0.05704-0.11814c-0.53369-0.44407-1.3933-0.23222-2.0492-0.29333-5.0803 0.37888-9.6879 4.1595-11.827 8.7061-0.47258-0.12222-0.20777-0.81072-0.32592-1.1652 0.08555-3.5973 0.87998-7.0276 3.4181-9.5616 2.5422-2.5462 5.8258-3.4832 9.0605-4.3999 0.15074-0.11814 0.11815-0.26888 0-0.38295-3.357-1.6092-6.8321-3.2714-10.845-3.0636-5.7036 0.0896-10.996 3.5932-13.342 8.7672-0.29333 0.12222-0.2037-0.2974-0.26888-0.45221 0.56628-5.1047 3.2714-9.9813 7.7895-12.739 3.0025-1.9963 6.2699-3.4222 10.132-3.3325 1.2181 0 2.314 0.26888 3.4466 0.37888 0.17926-0.0733 0.08555-0.32185-0.02852-0.41147-3.0922-3.3529-6.1802-7.6021-10.845-8.6124-3.5973-0.65591-6.8973 0.76591-9.0972 3.5933-0.84739 1.2914-1.4422 2.5055-1.6703 3.8621-0.23222 1.3526-0.32184 3.1207-1.0755 4.8603-1.5074 2.7784-3.7847 3.1573-4.7462 2.8803-3.9844-1.5114-3.1614-5.9195-3.1614-5.9195s1.5807 1.9963 4.0699 1.8496c0 0 4.0618-0.84331 4.2329-5.2554 0.02037-0.90035 1.1896-4.8603 3.4466-7.6224 2.7907-3.5077 6.9176-6.3513 10.82-5.7402 3.9029 0.61924 6.0376 2.7622 8.205 5.5284 0.23222 0.14667 0.32592-0.20777 0.35444-0.35443 1.0429-5.174 3.8377-15.192 4.1147-15.933-0.22-0.78628-3.801-2.7051-4.7421-3.3896-0.94109-0.68035-2.1062-2.1836-2.4077-3.2307-0.30555-1.0592-0.03667-3.3896-0.03667-3.3896s0.86368 1.7274 4.404 3.2307c1.6174 0.71295 5.0558 1.1366 5.0558 1.1366l1.7803-4.1025s0.75369-1.5888 1.214-2.3303l-0.616-0.347c-2.2162-1.3811-9.1339 1.1896-12.935 1.5888-1.4829 2.6929-4.1758 7.3372-7.7772 11.122-1.5155 1.3933-2.1103 2.1103-4.2899 3.4547-2.1755 1.3485-4.2206 1.9881-4.5914 2.0859-0.37073 0.0896-1.487 0.73739-1.9026 0.2811 3.1125-2.094 5.7077-4.0414 6.168-6.5469 0.46851-2.5096 1.8577-5.1047 2.6481-6.498-0.2037-0.14667-0.92887 0.88405-1.6703 1.3933-3.7684 2.9414-6.0784 3.7806-10.332 5.4795-3.1777 0.98183-7.2761 1.0389-9.9527-1.0389-0.06111-0.0896-0.06111-0.30147 0-0.39518 7.191-2.257 13.551-6.706 19.287-11.941 2.318-1.601 4.901-2.583 7.728-2.942l0.35444-0.11814c3.9599-4.1718 8.8813-7.6061 15.453-8.042 2.314 0.11 4.4855 0.91258 6.2699 2.42 1.8129 1.5522 2.7622 3.6625 3.2959 5.8054 0.53369 0.41554 1.1611 0.64776 1.6948 0.94923 3.8866 2.0492 6.8036 5.7076 8.3802 9.5657 2.2 4.7177 2.6807 9.1379 2.2285 15.318-0.45629 6.1802-0.9085 8.1357-3.9192 13.257-7.0765 11.753-1.87 19.078 1.0552 19.123 4.5506 0.65591 7.1906-6.7791 9.6961-9.1909 2.5055-2.4036 5.2066-4.461 6.3962-4.8114-0.97776-0.83924-3.1655-1.7314-4.0618-3.0392 0 0 5.5284 0.23222 7.3169-0.5948 0 0-7.211-0.54184-10.136-3.744 0 0 9.8264 0.8922 9.8183-0.19555 0 0-7.435 0.68443-10.788-6.4776 0 0 4.2736 1.7477 5.7932 1.0918 0 0-6.1802-5.2473-7.5206-11.049 1.3118 0.65184 11.049 7.0602 12.279 6.7302 0 0-6.6569-4.6158-7.0887-10.47 0 0 6.2454 6.7791 10.963 6.5062 0 0-5.0436-5.3084-4.9703-8.1317 0.07741-2.8233 1.0511-4.2532 0.98183-6.2454-0.07741-2.0044-0.96146-4.5547-0.96146-4.5547s1.6377 0.63554 2.8029 1.7192c1.1652 1.104 2.094 2.9862 2.5992 3.4344 0.32999-0.32999 1.2833-5.504-0.15074-9.4109 0 0 1.6581 1.2344 3.1655 2.7133 1.5033 1.4585 2.2529 4.3673 2.2529 4.3673s2.5829-5.2677 0.30555-10.319c0 0 1.1855 1.3892 1.8088 1.9555 1.9229 2.1429 2.4077 4.0332 2.4077 6.6324 0 2.591-1.3689 4.3795-0.80665 5.8136 0 0 0.35444-0.54592 1.6377-2.6603 1.2752-2.1062 1.4422-4.2532 0.90035-6.1517-0.54184-1.9066-0.86775-2.4077-0.84331-3.8499-0.057-1.4055 0.63962-2.3629 0.78628-3.1044 0.0652-0.0856-0.0367 3.0473 0.88405 4.1473 0.92072 1.4585 1.8496 1.5196 3.2429 3.1696 1.3892 1.6337 1.5278 3.8866 1.5278 3.8866s0.85961-1.4096 2.481-2.7784c0.18741-1.8944 1.1896-5.6914 3.8214-6.8117-0.43184 3.9273-0.26481 4.8317-0.26481 4.8317s0.70887-0.18333 1.5481-0.32184c0.82702-0.1263 1.8048 0.11814 1.8048 0.11814s-1.2589 0.74962-1.6581 1.1815c-0.3911 0.42777-1.2426 1.4463-1.2426 1.4463 0.13037 0.69665 0.39518 3.0025 1.8048 6.7791 1.4137 3.7807 2.3833 4.3999 4.017 6.8361 0.057-0.0244-1.927-4.7503 0.1711-5.5365 0 0 0.5948 3.5158 3.1573 5.7647 0 0-0.33407-2.4851-0.11-4.5792 0 0 2.4525 4.0699 3.467 3.8255 0 0 0.80258-1.0552 0.73739-2.5829 0.54999 0.96554 3.6788 7.8261 6.9828 8.8691 1.9881 0.92479 4.9621 0.50924 5.8747 0.65183 0.89627 0.14259 1.8048 0.17111 1.7722 0.0856-0.41147-0.46444-1.0592-0.9248-0.87591-1.8659 0.19148-0.93701 1.1896-1.2914 2.2651-1.4177 1.0755-0.10593 2.1959 0 3.7806 0.79442 1.5848 0.79036 3.0555 2.037 4.1758 4.8643 0.48073 0.82702 0.0978 2.0492 0.40332 2.3425 0.52554 0.38703 1.707 0.74961 2.3303 1.1 1.2263 0.74554 1.9229 0.64369 3.471 3.2755-2.4933-1.0226-5.0517-0.82702-5.0517-0.82702s0.45629 0.7048 1.32 1.1978c-0.22814 0.48481-1.984-0.30555-2.0696-0.22814 0.0489 0.82294 1.2059 1.2874 3.1084 2.2325l-2.807 0.0733s-0.86776-0.0407-2.147-0.33814c0 0-1.1652 0.60295-1.8822 1.3159-3.3529 3.3896-6.331 2.4892-7.048 2.4525-1.6622-0.0652-3.0107-2.9373-0.97775-5.4184 0 0-6.7791 0.89628-8.922 1.6907-2.147 0.79036-6.555 3.7277-6.555 3.7277s0.27295-2.3751-0.33407-2.2651c-0.83517 0.35851-2.1511 1.1326-2.3751 2.2244-0.22407 1.0878 0.0652 2.2366 0.74554 2.7784 1.8537 1.21 11.912 2.1185 19.25 2.1185 7.3413 0 12.988-0.79443 22.052-3.2877-1.0348 4.4732-4.5384 4.7543-5.3288 5.5447-0.79443 0.79036-0.0652 0.73332-0.73739 1.2426-1.1896 0.84739-5.0232 1.5277-5.6995 2.3222-0.68443 0.77813-0.64777 0.98998-0.64777 0.98998s0.22407 0.0448 0.57036 0.25666c0.33814 0.24036 2.1796 2.037 2.4851 2.7581 0.2974 0.71295 0.35444 2.6074 0.0896 2.9455-0.32185-0.22814-0.69665-0.46036-0.69665-0.46036-0.18741 0.26074 0.0285 2.2488-0.37074 2.4566-0.0896-0.50925-0.54998-0.64777-0.73739-0.64777-0.36258 0.15481 0.22407 0.97776-0.65183 2.367 0.0448-0.81073-0.5337-1.7681-0.76591-2.204-0.23629-0.43999-1.8333-1.4177-2.53-1.597-0.69665-0.19148-2.7173 0-2.7173 0s-1.6948 0.97368-1.98 1.8088c-0.28518 0.83924 0.7048 2.4892 1.1244 2.6359 0.41555 0.15481 3.8784 0.65591 5.3817 0.28518 0.21185 0 1.0144-0.46444 1.2507-0.74554-0.55406 1.2955-1.0389 3.5525-2.6318 3.5525-1.5848-0.008-4.8073-0.0652-7.0032-0.65591-1.1366-0.68036-1.6826-1.3689-2.4281-2.3874-0.44407-0.22814-0.0163 3.9681 0.27296 4.0862 2.4974 0.85961 7.435 2.3262 11.142 3.3407 3.7114 1.0185 12.373 2.6685 14.964 2.8803 3.1573 0.86369-9.1502 3.6381-9.2724 3.7929 0.44406 0.32185 0.97775 0.12222 1.4259 0.65184 1.7477 4.8888-9.1216 2.9944-11.236 3.5362l-0.0896 0.0856c0.53776 0.44406 1.8781 0.82702 1.8781 0.82702-1.9922 1.9514-9.8224 2.4077-14.043 2.0981-4.2166-0.2974-10.527-2.0492-10.527-2.0492 0.15481 0.2974 1.8903 1.6988 0.8922 1.7518-0.99813 0.057-4.4284 0.0652-7.321-0.27703-2.8884-0.34629-8.6654-2.2488-10.303-3.4914-1.6418-1.2385-2.0166-1.377-2.5666-1.2018-0.53777 0.17111-1.2426 1.1978-2.1592 1.7396-0.9248 0.54591-2.1714 0.49295-2.6603 0.86776-0.48481 0.38295-0.37481 1.0796-0.70073 2.3344-0.32999 1.2426-0.81072 2.1674-0.76184 2.5422 0.06111 0.3748 2.1674 1.3037 2.1674 1.3037l2.3385 0.59888s3.0596-0.46851 4.3429 0.63554c2.1429 0.44814 4.0292-1.324 5.5691-2.037 1.544-0.71702 2.974-1.6826 3.9884-1.6907 1.0185-0.008 6.6324 4.2166 6.9706 4.9254 0.33407 0.71295 1.3933 7.1172 0.52554 6.8565-0.19147-0.4156-0.60295-0.3015-0.60295-0.3015s0.0407 0.827-0.41554 1.0144c-0.0693-0.224-0.56221-0.4155-0.56221-0.4155s-0.52147 2.1918-2.5911 2.1429c0.59888-2.1103 0.12222-2.7581 0.12222-2.7581s-1.21 0.8352-2.4403 0.09c1.5766-0.55 1.047-2.4688 1.047-2.4688s0.0978-1.2955-1.7152-1.5196c-1.8007-0.23222-3.5688 0.2974-4.2492 0.97776-0.67628 0.67628-0.70887 2.978-0.18333 3.9191 0.52147 0.933 0.63554 1.0837 1.4259 1.5767 0.79443 0.497 1.1326 0.8229 2.1103 0.7333 0.97775-0.09 1.4626-0.163 2.257-0.6885 0.48888 1.2385-1.3037 2.1999-1.3037 2.1999-1.9718 1.3322-6.0743-0.02-6.9461-1.711-0.86369-1.703-1.1-4.5303-2.3303-5.6547-0.2974-0.38295-2.2366-0.4685-2.2611-0.14666-0.52147 6.1232-4.7829 9.7083-7.8383 11.379 0.99406-0.1996 2.2081-0.4888 2.9536-0.7862 1.4259-0.5908 1.0348-0.5297 2.3385-1.373 1.2996-0.8474 4.2899-4.738 4.5629-6.3309 0.0611-0.3871 0.86776 2.9332 1.2955 3.7725 0.7048 1.3851 2.3996 2.5381 4.518 3.084 2.0777 0.5337 4.0455 0.3137 5.398-0.603l1.7233-1.6744 1.3607-0.3218c2.0737-0.4808 2.4281-2.2244 2.5992-2.1715 0.38295 0.1141 1.0266 0.2852 1.1407 0.2526l0.86776-1.0103c1.65-1.9107-0.36666-8.9628-0.39517-9.0239-0.25666-0.53777-1.8985-2.0614-3.6177-3.361 1.2222 0.0163 2.5544 0.0245 2.9822 0 0.97368-0.057 1.7926-0.98183 1.7926-0.98183 2.2407 0.5174 5.2188 1.1122 7.6224 1.2874 3.1125 0.22 12.686 0.20778 15.64-2.6766 0 0 0.14667-0.42369 0.35851-0.42369 3.6096 0.0611 7.5328 0.0163 9.2154-2.314 0.53776-0.75776 0.64776-2.7092 0.64776-2.7092 6.5347-1.764 8.2457-2.5951 8.2539-4.5629 0-0.41962-0.13852-1.8252-2.0248-2.3425"/>
   <path d="m149.78 109.02c-1.0226-0.13852-2.1185 0.69665-2.1185 0.69665s1.654-0.057 2.0696 0.0856c0.41554 0.14259 1.927 0.8148 2.811 1.7437 0.22815 0.24036 0.37074 0.41962 0.55407 0.99405 0.20777-0.73739 0.0244-1.2018-0.13852-1.4381-0.37481-0.63961-2.1592-1.9514-3.1777-2.0818"/>
   <path d="m147.74 106.33c0.37481-0.0815 3.577-0.15481 4.1025 0.22814 0.52147 0.37481 2.9048 2.1185 3.1573 2.9496 0.13444-0.83516 0.13444-1.3444-0.1874-1.7844-0.36666-0.67628-1.9963-2.204-2.4851-2.5177-0.48481-0.32185-5.7891-0.46444-6.5224 0.0693-0.73332 0.53776-3.0718 2.9129-3.0718 2.9129s-2.1144 2.094-2.644 2.2611c-0.53369 0.15889-0.52554 0.0856-0.79035 0.2037-0.26481 0.11 0.44813 3.7725 0.71702 3.7725 0.26073 0 1.0674-0.6111 1.3852-0.36666 0.32185 0.24037 0.76184 0.85147 0.76184 0.85147s1.1122 1.1448 1.6988 1.654c0.11814 0.17926 4.5506 0.75776 6.6243 0.71702 0.36665 0 1.1244-1.4666 1.1244-1.4666-1.1122 0.70073-5.4999 0.0122-6.0295-0.17518-0.52554-0.19963-1.7885-2.5992-1.6255-3.5281 0.16296-0.93702 2.5096-2.4688 2.5096-2.4688s1.1978-0.8311 1.5685-0.96961c0.65591-0.27703 1.5359-0.27703 1.5359-0.27703s0.80257 0.0774 1.5155 0.30962c0.71702 0.22814 2.8599 1.8129 3.0799 2.754 0.18741-0.83924 0.18741-1.6337-0.13851-1.8496-0.37074-0.56628-2.2244-2.2285-2.6725-2.4566-0.45628-0.21592-4.0332-0.19148-4.1066-0.2974-0.0733-0.11 0.11407-0.45629 0.49295-0.52554"/>
   <path d="m138.43 110.81c-0.41962-0.0815-1.3485 0.34629-2.1307 0.45629-0.60702 0.0896-1.1244 1.0307-1.2711 1.3648-0.15481 0.33407 0.30148 0.84739 0.5011 1.6663 0.19555 0.82702-0.11 1.8822 0.22407 1.8822 0.34222 0 0.71702-0.60295 1.2752-0.79035 0.57443-0.19148 1.6581-0.26481 1.9637-0.41555 0.30147-0.15074 0-1.0552-0.0774-1.7314-0.0733-0.67221-0.0733-2.3548-0.4848-2.4322"/>
   <path d="m138.09 118.01c-0.14667 0.44814 1.6581 0.82295 1.9555 0.67628 0.30147-0.15481-0.057-2.5585-0.14666-3.0473-0.0937-0.5011-1.6214 0.0326-2.037 0.18741-0.41147 0.14259 0.11815 2.1022 0.22815 2.1836"/>
   <path d="m134.59 116.59c0.30147-1.7396-0.053-3.3407-0.65184-3.3814-0.71702-0.14666-4.6647 0.61517-4.8603 0.96146-0.17926 0.33814 5.398 2.8274 5.5121 2.42"/>
   <path d="m101.04 140.02c-0.87183-0.43999-1.6011-1.0837-1.9759-1.0837-0.38296 0-2.09 2.4444-2.0329 2.7744 0.05704 0.31777 1.7926 0.63961 2.8273 1.0714 1.0266 0.42777 2.4403 1.0674 2.7662 1.0674 0.32592 0 1.3933-2.5544 1.0144-2.9862-0.16703-0.32999-1.7274-0.41962-2.5992-0.84332"/>
   <path d="m106.29 145.83s-1.0674 0.29332-1.7518-0.0652c0.76184 3.2429-3.7888 9.7694-3.7888 9.7694 1.1081-0.277 5.1658-3.9843 5.5406-9.7042"/>
   <path d="m108.27 144.98c0.37888 0.14259 1.487-0.15888 2.3099 1.5766 0.8311 1.5074 1.2629 4.5914 2.094 5.3125 0.82702 0.713 0.90443 0.937 2.9373 1.3526 1.9922 0.1874 2.8192-0.094 2.9333-0.6274-2.4036 0.4929-3.5607-0.6152-3.5607-0.6152s-1.2548-0.7781-1.7437-1.8659c-0.49296-1.0877-0.63962-2.9169-0.33815-3.6706 0.30148-0.74961 0.56629-1.6214 1.5766-2.037 0.71702-0.29333 1.6418-0.67628 2.8844-0.67628 1.2385 0 2.3914 0 3.3325 1.0226 0.31369 0.44814 0.40332 1.4096 0.40332 1.6214 0.15888 1.214-0.39518 1.7681-0.39518 1.7681s1.0511 0.1793 1.2629-0.86774c0.30962 0.83514 0.46443 1.2996 0.49702 2.9414 0 0 1.6133-1.3118 1.0837-3.1614 0 0-0.48073-2.6074-1.4544-3.7725-0.93701-1.1244-3.3407-2.2488-4.2084-2.2896-0.86369-0.0326-3.8132 1.5766-4.0984 1.2018-0.28518-0.36666 3.2592-2.4362 4.4732-2.3833 1.2059 0.0733 3.7644 2.0859 4.518 2.9129 0.79035 1.0592 1.3729 3.361 1.4952 5.2106 1.5807 0.1467 0.60295-4.7176-0.1874-5.7239-0.52962-0.60295-5.0151-4.3918-6.3269-4.1188-1.32 0.25666-5.3858 2.7377-6.551 3.2714-1.267 0.57036-2.534 0.1263-2.7744 0.22815-0.26073 0.10999 0.22815 0.82294 0 1.7966-0.22406 0.98183-0.54184 1.434-0.16295 1.5929"/>
   <path d="m107.14 144.98c0.48073-0.17111 0.82702-2.587 0.67628-3.3366-0.15074-0.74961-2.7662-0.85146-3.2225-0.62739-0.33814 0.0407-0.43184 1.1774-0.61925 1.7559-0.26073 0.83924-0.79035 1.3403-0.56628 1.6337 0.34629 0.86368 2.6766 0.94109 3.7318 0.57443"/>
   <path d="m153.62 85.585c0.4848-0.0611 1.8007 0.15074 2.4077 0.23222 0.59888 0.0652 1.5563 0.44406 1.5563 0.44406s-0.27703-0.91257-2.0126-1.7803c-0.85961-0.41147-1.8537-0.99405-2.4525-0.84739-0.60295 0.15482-1.8374 1.8618-2.0655 2.5707-0.22814 0.71294-0.20777 2.1511 1.0755 2.5992 1.4259 0.33814 2.257 0.19962 2.257 0.19962s-1.8455-0.2811-2.4851-1.8659c-0.33814-1.1285 1.2426-1.4952 1.7192-1.5522"/>
  </g>
  <path d="m45.289 0-44.846 43.559v112.88l44.846 43.56h95.914l40.354-39.199v-18.957h-42.072v16.59h-96.969v-20.627l-0.70898-0.0781c0.2811-0.24036 0.50528-0.46394 0.70898-0.67579v-1.752c-1.7029 0.81072-3.6543 1.003-5.3613 0.97852v27.369h107.69v-16.598h31.357v11.594l-37.221 36.137h-91.469l-41.709-40.5v-83.826c-0.097776-0.0733-0.21244-0.12164-0.31836-0.20312 0 0-2.5335-1.915-3.2383-2.9824l3.5566-0.88867v-20.662l41.709-40.5h91.469l37.221 36.141v11.59h-31.357v-16.598h-107.69v11.424c1.6418-1.1978 3.4547-2.244 5.3613-3.0547v-3.1543h96.969v16.594h42.072v-18.957l-40.36-39.204h-95.911zm4.877 46.865c-0.29441-0.01674-0.4758 0.0343-0.4707 0.17383-0.08963 0.55814 3.2511 0.46031 4.3633 6.3105 0.49295 2.6603-0.27631 3.6207-1.3926 6.0977-0.56628 0.97775-1.0427 2.0203-1.4297 3.0918-3.0555 6.9502-5.4593 14.203-6.8281 21.902-0.50517 1.4218-0.49467 6.3032-0.19726 7.7617 1.2466 6.1232 3.2147 9.7197 6.6328 14.914 2.0166 3.2103 7.1588 6.2527 11.746 7.2305-9.7002-5.8014-10.996-9.4961-10.996-9.4961s-7.5294-11.742-2.6406-24.848c1.8985-5.0721 3.8923-10.18 6.4141-15 1.3689-2.2651 2.3502-4.6974 2.5254-7.4922-0.14666-1.6255 0.03187-3.3478-0.74219-4.8145-1.2752-2.7499-2.0929-3.6627-3.2988-4.502-0.90442-0.62944-2.8023-1.2799-3.6855-1.3301zm-8.0645 3.207c-0.52974 0.0031-2.0572 0.44656-2.6133 0.72461-0.74554 0.37073-1.7842 1.0019-3.2305 2.3789-1.9596 1.7192-3.8713 5.5573-4.1973 6.1113-0.32184 0.55814-4.2209 6.7351-4.4531 9.4688-0.60295 3.3896-2.5527 4.457-2.5527 4.457 1.9881-0.94924 5.1968-4.3188 6.916-6.6328 2.5096-3.1696 4.0784-6.3589 6.0176-9.9277 0.94924-1.6377 2.8939-4.923 4.2383-6.4141 0.11815-0.11916 0.05158-0.16704-0.125-0.16602zm71.703 2.3848s-0.70053 0.73581-1.0957 1.6973c-0.3911 0.96146-0.66015 2.4824-0.66015 2.4824 0.62331-0.47258 1.0185-0.68418 1.7559-1.002 0 0-0.0947-0.60323-0.11914-1.3691-0.0163-0.76998 0.11914-1.8086 0.11914-1.8086zm-66.488 0.981c-1.4829 0.0652-5.2679 0.09816-5.6875 0.37109-0.42369 0.28111-0.79956 0.72633-1.3984 1.5859-0.05296 0.14667-1.1968 1.7965-1.0176 1.9473 3.8336 0.0896 9.464-2.9664 13.09-0.74609 0.38295-0.0856 0.32918-1.0719 0.39844-1.3652-0.0937-0.45221 0.08642-1.1934-0.44727-1.4297-1.544-0.21185-3.2712-0.32661-4.9375-0.36328zm56.322 1.2188c0.52962 1.6988 0.71579 2.2241 0.59765 3.2793-0.18333 2.5992-0.29353 3.6178-2.3672 6.5918-3.3121 3.2999 2.9024 9.3418 2.9024 9.3418s-3.3328-2.9466-4.9746-5.2402c-1.7314-3.0107 0.18623-8.2457 0.02734-10.01-0.16703-1.7722-0.51758-3.2422-0.51758-3.2422s-0.11317 3.6459-0.875 5.2266c-0.76998 1.5848-1.2175 2.8525-1.3438 4.4902-0.29333 3.5036 0.75195 6.1348 0.75195 6.1348-1.6174-1.8088-2.521-7.0853-2.4844-9.5664 0.03259-2.7499-1.9766-4.4727-1.9766-4.4727s0.13188 1.8057-0.03516 3.6309c-0.15888 1.8211-0.62493 2.1129-0.81641 4.6836-0.37073 2.5585 5.3906 9.334 5.3906 9.334s-4.1474-2.8546-5.6914-7.3359c-0.44814-1.9962-4.0664-6.6699-4.0664-6.6699s0.56659 0.86693 0.41992 2.6758c-0.15481 1.8088-1.2837 3.5008-0.60742 5.8066 1.1285 2.3711 5.2111 9.2882 11.99 9.9727-3.5077 1.9392-14.042-2.66-16.205-3.6133 1.0307 2.1633 9.8178 8 16.377 9.0918-4.9866 2.1592-17.599-4.1185-22.59-7.4551 3.357 4.7543 8.4727 8.6992 8.4727 8.6992-1.3566 1.0226-6.0488 0.28516-6.0488 0.28516 2.367 3.2633 12.201 3.3887 12.201 3.3887-0.75369 2.4892-8.6934 2.2617-8.6934 2.2617 4.1718 2.0492 8.3555 1.4043 8.3555 1.4043-0.37481 0.97369-0.86497 1.7033-2.8164 2.0781-2.8151 0.64776-6.0488 0.35547-6.0488 0.35547l3.8262 1.8125s-5.1456 3.3083-7.9648 6.0664c-2.8151 2.7662-5.8349 10.029-8.707 9.3281-2.1225 0.76591-4.1015-0.0726-4.8145-1.0586-0.7211-0.97368-2.9175-3.8735-3.166-6.4727-0.24037-2.6033 1.0513-9.3418 3.3164-12.805 2.257-3.4629 4.0661-5.7197 4.2168-17.176-0.26481-8.1072-3.4835-14.149-7.1094-17.127-0.85961-0.86368-2.5302-2.0539-2.9824-2.168-0.45221-0.10999-0.06986 1.3358-0.17578 2.1465-0.11407 0.91665-0.55851 1.837-0.22852 2.1914 0.60702 0.99812 2.2661 1.2033 4.2461 9.168 2.314 12.422-3.2746 17.057-3.3887 21.611-0.90442 4.6688-0.60828 8.4331-0.30273 11.15-2.864-6.335-1.7308-13.228-0.77344-19.213 0.95739-5.9847-2.0412-12.23-3.3164-13.098-0.24036-0.11815-0.62331-0.41962-0.80664 0-0.68036 1.4626-1.304 2.4659-1.748 4.0059 5.4225 5.9276 0.76931 11.956 0.01563 16.25-0.75369 4.2858 0.90594 12.804 1.957 14.613 1.0552 1.8007 7.0185 9.4731 14.16 9.9375-2.7418 1.3444-4.1353 1.4098-6.7793 0.7539-8.5798-2.1714-12.524-6.1069-15.176-6.0254-3.3855 0.10999-4.6998 0.59733-6.0605 1.127-1.3526 0.53369-2.8605 1.2057-4.0664 2.5664-1.2059 1.3566-2.0214 2.787-2.2617 4.2129 0 0 1.6582-2.0372 4.5996-3.459 5.1903-1.9677 7.6795-1.739 11.289 0.60351 3.0147 1.1937 7.5331 5.9398 11.9 4.8887 0.14666-0.057 2.3188-0.0118 2.2617 0.22852 0 0.11814-2.168 0.54258-2.2617 0.59961-3.4588 0.60295-7.0234-1.4517-10.535-3.3828-0.97776-0.53369-3.0194-1.7392-3.9238-1.4336-0.90035 0.29332-3.3073 1.8089-5.0469 3.8418-1.7314 2.0248-3.0879 4.8164-3.0879 4.8164 2.7133 0.52554 3.1645 0.15317 8.1348-3.9941 1.7314-0.82295 5.3944-0.75754 8.8125 0.7539 0.22407 0.38296 0.37409 0.8363-0.07813 1.207-1.6948 0.0245-2.1498-0.37958-3.1602 0.30078-1.0063 0.68443-1.1294 2.6392-0.83203 2.4844 0.60702 0.15481 1.6619-0.82173 4.3711-0.59766 1.434 0.37073-4.2734 2.016-6.1719 2.1016-4.1718-0.0815-5.276-0.2192-6.7793 1.2148-1.5074 1.4218-2.1871 3.1615-3.6211 4.7422 0.83517-0.0937 4.5947-2.4823 5.4258-2.8652 0.82702-0.37888 5.7244 0.00084 8.8125-0.68359 3.0881-0.67221 4.5959-1.5736 5.3496-2.2539 0 0-0.2326 2.1851-1.5566 5.0898 0.06111 0.21185 5.2559-4.5475 5.6348-5.5293-0.12222 0.29333-1.3005 3.0479-0.2168 6.3438 0.32999 2.5503 0.81205 2.6609 0.11133 6.7227 2.5462-2.4362 3.9019-5.9122 4.0078-8.2344 0.10592-2.3344-0.32527-4.8315 0.26953-7.2637 0.43592-1.7314 2.04-4.6036 2.1133-4.5547-0.1874 0.97368-1.568 3.3071-1.625 6.2363-0.05296 2.9292 1.1409 7.3661 1.8457 7.9609 0.37481 0.27296 1.0267-1.1314 0.75781-2.1133-0.26888-2.6522-0.65184-6.4779 0-6.8242 0.26481 0.0856 1.2952 1.2417 1.5723 2.8184 0.5948 1.2955 0.000927 2.489 0.97461 3.4668 0.03259-0.0326 0.64798-1.0312 0.75391-2.9297 0.11-1.8944-0.48118-2.7084-0.70117-3.5762-0.22-0.85961-0.27734-4.3828-0.27734-4.3828s2.981 2.2527 4.1055 2.709c1.1326 0.44406 5.4797 3.5682 6.7793 5.5644 1.0552-1.6581-0.47493-3.2873-2.7441-5.5117-1.0878-1.4626-3.7444-2.4451-4.4492-5.582-1.3648-4.9662 5.4712-15.823 9.207-15.766-1.4014 2.5992-0.32226 5.793-0.32226 5.793s0.57136-3.7853 3.582-6.3438c3.9192-3.9273 8.8036-5.9359 10.205-6.5918-1.2996-0.10999-1.639-0.05156-1.8672-0.50781-0.44814-0.84331 0.95754-3.7046 5.7363-5.1387-1.9188 0.90443-3.6175 1.5772-4.1797 3.166-0.45222 1.1855 0.19531 1.6328 0.19531 1.6328s1.1298-1.0708 1.8672-1.5801c0.73739-0.50925 2.7532-0.87634 2.7695-0.84375 0.17111 0.39111 0.0524 0.72598-0.17578 1.0723-0.22814 0.33814-0.85973 0.33832-1.373 1.1816-0.30148 0.52554-0.47267 1.4374-0.1875 1.7715 0.28518 0.34629 1.5073 0.0729 2.1836-0.60742 0.85148-1.2955 0.67616-0.81835 0.9043-2.2891 0.28111-1.7559 1.582-2.0938 1.582-2.0938s-0.22409 3.0471 0.28516 3.5645c0.27703-1.6459 1.125-1.5273 1.125-1.5273s-0.0537 2.9295 0.67969 3.2188c0.11-1.5807 1.0762-1.4707 1.0762-1.4707s0.17016 2.5413 0.63867 2.7246c0.2037-0.85554 0.76563-1.707 0.76563-1.707s0.62843 2.2011 1.0195 2.5352c0.28518-0.55813 1.0742-1.4102 1.0742-1.4102s0.30549 3.8174 2.8476 5.1699c-0.89628-5.7932-0.34163-6.185 0.46094-6.5312 0 0 0.53372 5.1782 5.9766 8.0137 0 0-1.4169-2.6893-1.918-4.4004-0.49703-1.6948-1.3622-5.6256 0.12891-7.1289 0.41554-0.53369-1.9593 0.27286-0.9082-0.33008 1.0592-0.60295 5.3334-2.2691 5.5371-1.9473 0.26481 0.3911 0.0526 1.4626-0.0371 1.8496 0 0 3.052-2.0333 4.9668-2.5996 1.927-0.55814 9.6621-1.5195 9.6621-1.5195 0.33814 0 2.0375-1.698 1.9805-2.1543-0.0611-0.44813-0.98578-1.5197-0.9043-1.8008 0.18741-0.63961 4.4772-3.146 2.9902-3.1094-4.1799-0.57035-8.7015-0.15011-11.35-1.5801-3.137-1.6988-3.8182-4.5264-4.9141-6.4941 0.21592 0.66813-0.9043 1.5801-0.9043 1.5801s-2.3545-1.552-2.9941-2.709c0.44814 1.2752 0 2.7598 0 2.7598-3.5403-2.2244-3.7852-3.7246-3.7852-3.7246-0.15074 0.52962 0.95899 4.0625 0.95899 4.0625s-3.4636-1.7977-5.8184-6.9961c-0.97776-1.7885-2.1426-7.293-2.1426-7.293-1.4137 2.2244-1.5859 2.9473-1.5859 2.9473s-1.1898 4.2229 0.33789 6.8262c1.1896 1.7518 4.013 3.9537 4.6934 4.1777 1.6337 1.1896 0.33399 1.0176 0.33399 1.0176s-4.6887-1.3533-5.9883-1.4062c-1.2955-0.0611-1.9177 0.33933-3.7266-0.16992-1.8048-0.50925-3.133-2.6522-2.9863-4.7422 0.16296-2.5625 1.0745-2.8074 1.3516-3.7852 0.94924-1.5807 1.2229-4.998-0.44336-6.9453-0.52147-0.67628-1.3848-1.4833-2.6641-2.2695zm-22.594 0.45898s0.34246 0.97371-0.33789 2.3711c-0.64369 1.1326-2.4122 1.7615-2.5996 4.3281-0.26074 3.4262 2.7871 4.8555 2.7871 4.8555s-1.0934-1.6583-0.86523-3.2676c0.45221-2.3425 2.1846-3.242 2.2539-4.7168 0.08148-1.4626-1.2383-3.5703-1.2383-3.5703zm42.391 0.27734s-1.3525 1.6426-1.7559 2.543c-0.38703 0.91257-0.56151 2.0934-0.30078 4.2363 0.22407 1.6052 0.90039 2.041 0.90039 2.041 0.49295-1.2752 1.7056-1.402 1.6934-3.166 0.057-1.5848-0.36577-1.7599-0.58984-3.2266-0.17111-1.0755 0.0527-2.4277 0.0527-2.4277zm-8.084 0.5625s-2.6186 1.1319-3.8652 2.5293c-1.3363 1.2181-2.2502 2.8738-2.4824 3.3301-0.80257 1.2548-1.1434 3.691-0.88672 5.3613 0.26074 1.6663 1.473 4.0529 2.4141 4.4277 0.94109 0.37888 1.6344 0.04144 2.877 0.45703 1.2466 0.40332 2.5996 0.78906 2.5996 0.78906-1.0307-0.94924-3.9239-3.2342-4.1602-4.4238-0.0407-0.10592-0.72129-1.9806-0.375-4.918 0.37073-3.2388 3.8789-7.5527 3.8789-7.5527zm-84.26 0.17773c-1.6255 0.0937-3.8008 1.5917-6.0293 3.1113-3.9518 3.7114-8.2867 6.9785-13.041 8.9707-0.5948 0.38295-1.3401 0.4118-1.9023 0.79883 3.2918 0.14666 6.2051-0.91592 9.0039-2.1992 4.2492-1.8374 10.023-6.511 10.992-7.6191 0.50925-0.46036 0.90771-1.74 1.4414-2.6934 0 0 0.32144-0.41395-0.46484-0.36914zm9.2285 5.9258s0.03565 0.68038 0.16602 1.1855c0.19148 0.70888 1.189 1.6628 1.8652 2.2617 0.90442 0.82294 4.6861 3.0474 4.7676 2.75 0.26073-0.91257 0.50543-1.4708 0.99024-2.416 0.30555-0.3748-3.0447-0.84458-4.8535-1.6309-1.6174-0.70887-2.9355-2.1504-2.9355-2.1504zm-2.3281 2.373c-0.03259-0.0693-0.35928 0.30475-0.83594 0.91992v13.889c1.7396 0.66406 3.1255 1.6339 4.2988 2.7461 0.15481-0.44813 0.56547-2.0249 1.0625-3.9355v-9.0312c-0.75776-0.47666-1.4821-0.91345-1.6328-1.0234-1.0144-0.72925-2.2489-2.163-2.8926-3.5645zm106.62 10.823c-0.86043-0.000715-1.496 0.26575-1.6055 0.98633-0.1711 1.1489 1.1856 1.8652 1.1856 1.8652s1.7475 0.11301 3.8945 1.4004c2.147 1.3037 3.332 2.6211 3.332 2.6211 0-0.77406-0.0973-1.7126-0.39063-2.3359-0.56629-1.6866-3.0558-3.8898-4.6894-4.2891-0.61415-0.15124-1.2103-0.24762-1.7266-0.24805zm2.1797 4.8164c-0.63962 0.12222-3.5039 2.3793-3.5039 2.6074-0.11407 0.39518 0.39607 1.1829 0.73828 1.5781 0.33814 0.39925 0.89706 0.8663 1.3574 0.79297 0.44814-0.0733 1.1392-0.75406 1.2207-0.89258 0.14259-0.19148-0.13788-0.114-0.39454-0.19141-0.99813-0.1711-1.0302-1.8205 0.13086-2.3379 0.7211-0.32592 1.8941-0.25708 2.8066 1.1484 0.59073 0.79035 1.6418 1.3045 1.8496 1.3574 0.21184 0.0326 0.5668-0.41248 0.50977-0.64062-0.11408-0.47666-1.0029-0.97775-1.4551-1.4707-0.45221-0.49295-2.6324-2.0571-3.2598-1.9512zm-113.92 1.897c-3.8418 0.0326-7.3099 2.831-9.2695 6.1758l0.17969 0.03711c1.544-0.80258 3.1211-1.5449 5.0195-1.5449 6.5428-0.057 10.995 5.1658 15.098 9.6309l0.0293-0.24805c-0.384-1.272-3.415-14.027-11.058-14.051zm114.71 2.3262c-0.36739 0.0797-1.0528 0.72136-1.584 1.1562-1.4626 0.84332-2.0277-0.49856-2.2559-0.34375-0.22407 0.14666-1.0599 1.2226-0.79101 1.4141 0.26073 0.18333 2.7833-0.12099 4.0625-0.07617 1.2833 0.0367 2.3755 0.26074 2.791 0 0.41147-0.26888 0.12484-0.55518 0.79297-1.4922 0.68443-0.94924-1.3634-0.21219-2.8789-0.65625-0.0382-0.01375-0.0842-0.01334-0.13672-0.002zm-0.55469 2.8613c-0.4321-0.0087-0.81186-0.0064-1.0644 0.0059-1.0144 0.0407-3.3159 0.21966-3.9922 0.67188-0.3748 0.1874-1.4304 2.4883-0.9375 3.3887 0.4848 0.90035 1.2054 1.0233 2.668 0.97852 2.4851 0.0815 5.1207-3.0852 6.3633-3.5781 0.52962-0.33407 0.41548-0.86639 0.19141-1.123-0.17112-0.19861-1.9322-0.31759-3.2285-0.34375zm-109.87 7.0195v0.54883c0.15888-0.0163 0.31768-0.04102 0.47656-0.04102-0.15889-0.17111-0.31768-0.3367-0.47656-0.50781zm66.906 1.8301c-0.22753-0.02128-0.462-0.01994-0.70899 0.002-1.9759 0.17111-3.6179 1.9188-5.0234 2.9414 0 0 0.6038-1.4015 1.3086-2.3223 0 0-5.8716 2.0611-9.1797 6.2695-1.8129 2.2651-2.8643 4.819-3.8828 7.6016-0.9248-1.3648-1.8986-4.7135-1.4668-6.8809-0.7048-0.27703-2.9653 2.4-3.2383 4.0215-0.27296 1.6296 1.6582 4.0703 1.6582 4.0703-1.9596-0.52962-2.8633-2.4863-2.8633-2.4863s-0.67631 1.2833-0.37891 2.5625c0.30962 1.2792 1.8086 2.7832 1.8086 2.7832-1.2955 0.7048-2.7871-1.4297-2.7871-1.4297s-1.0544 3.0869 0.07813 4.8184c2.9373 3.0148 4.2885 3.8384 6.627 7.3828 1.1285 1.5807 2.7092 2.0378 2.5625 5.5781-0.37888 6.4736 1.4277 5.4902 1.4277 5.4902s-0.22528-2.408 0.45508-2.5547c0 0 0.52615 2.3316 1.5039 3.7656 0.97776 1.43 2.5617 2.8588 3.7676 2.6348 1.2018-0.22814 1.3815-0.93217 2.0293-1.9629 0.97776-1.5644 0.53409-6.3967 0.60742-6.7715 0.07333-0.37888 1.7277-0.75267 0.27734-1.4941-1.157-0.5948-1.7924-1.422-1.7109-1.8945 0 0 2.6348 1.2755 2.6348-0.9082 0.2974-2.0288-1.9555-2.4864-2.5625-3.0078-2.864-2.3344-5.1895-6.4844-5.9473-6.4844 0 0-1.0565 0.15796-1.2031-0.45313-0.15481-0.5948 0.97856-0.9005 1.8789-0.13867 0.9085 0.74961 2.0331 2.477 3.6953 3.9844 1.6581 1.5114 2.5588 2.1836 3.6914 2.1836 0 0-1.5076-1.1284-1.1328-2.1836 0 0 1.9583 2.4894 3.1602 3.3164 1.214 0.82294 3.9199 1.5039 3.9199 1.5039-0.37481 0.68443-2.5586 0-2.5586 0s6.177 4.8222 9.9414 6.4844c3.7644 1.65 8.4155 2.1602 10.277 1.5898 1.8659-0.55814-2.0319-0.95721-3.0586-1.4746-2.5096-0.99405-4.3927-1.8532-8.1856-3.9473-3.7847-2.0859-6.8887-5.8105-6.8887-5.8105s4.2905 2.7546 6.7227 2.5957c-0.11 0.56221-1.6348 0.67187-1.6348 0.67187s1.105 0.7908 5.7656 2.8359c4.6647 2.0451 9.1873 3.2066 15.074 4.7344 5.8828 1.5359 11.297 1.3556 13.859 0.30859-3.3162-0.15481-10.221-2.1465-14.91-3.6172-5.7199-1.9596-10.251-4.0705-13.693-6.2012-0.63554-0.34629-0.43665-1.0266 0.20704-0.80664 0.64776 0.21592 2.1076 0.8307 5.8027 2.334 3.6951 1.5074 11.671 3.6831 17.773 4.5957 4.5914 0.97368 12.796 1.1729 16.039 1.2422 3.8621 0.0204 2.262-1.4864 1.3535-1.5801s-9.9404-1.1276-16.939-2.4883c-7.0073-1.3566-14.198-4.0664-18.83-6.0586-0.60295-0.30555-0.45164-1.356 0.60352-1.0586 2.7825 1.0592 8.9572 3.0144 12.652 3.9922 3.687 0.97775 8.2062 1.9597 12.732 2.5586 4.518 0.60295 7.3032 1.1514 12.795 0.22656 0.50517 0 4.0673-0.7114 2.1484-1.127-1.9188-0.41147-8.4019-1.6252-10.785-2.2363-2.3833-0.61109-9.5115-2.3836-15.684-4.6406-7.8343-2.7092-11.692-5.7564-14.85-8.543-3.3122-2.6603-6.6942-8.0719-10.516-10.785-3.3437-2.3706-4.628-3.5835-6.2207-3.7324zm56.795 0.73438c-2.0329 0.57443-11.024 2.2045-15.277 2.4082-4.4569 0.0815-8.9128 0.02492-13.309-0.29688-2.4036-0.18333-8.9355-1.951-8.3203-0.76953 0.93701 1.6581 4.0824 4.8321 4.4531 7.0605 0.36666 2.2326-0.086 5.3636-0.37109 7.7266 0.24036 0.50925 4.0059-0.69641 5.1426-0.85937 1.1815-0.40332 1.0637-1.3308 2.2207-1.9785 0.74146-0.28517 3.2092-0.74536 4.3906-0.81055 0.28111 0.12222 2.0783-1.6509 2.3594-2.1602 0.33406-0.34629-2.8268 0.16351-3.9023-0.0606-0.72924-0.057 0.0678-0.74219 0.46289-0.74219 0.39518 0 3.7732 0.34711 4.1113 0.12305 0.34222-0.22407 2.0009-1.6863 1.5527-1.8574-0.45221-0.17111-2.6603 0.0715-3.2266-0.0996-0.56629-0.17518-0.0616-0.56447 0.67578-0.56445 0.73332 0 7.4792 0.21936 8.5547 0.10937 0.84332 0 2.1025-0.94043 2.4121-1.8652 0.17111-0.50517-4.9419-0.25744-6.1641-0.17188-1.2222 0.10592-6.3596 0.24335-9.627-0.0215l-0.26758-0.17774c-0.0326-0.0896 0.00005-0.17187 0.0937-0.17187 6.5062 0.14667 16.022-0.98565 21.994-2.6152 1.5522-0.59481 1.8699-1.1132 2.041-2.2051zm-141.67 1.303s-1.3572 2.2-4.0664 2.3711c-1.5114 0.0733-2.9941-0.79883-2.9941-0.79883s0.61901 2.7704 2.9941 2.8926c2.314-0.057 3.7283-2.493 4.0664-4.4648zm19.266 0.46289c-1.1233 0.03558-2.2448 0.1936-3.252 0.49609-3.5729 1.0918-5.6829 2.1107-9.0684 5.1621-0.4848 0.62739-1.3116 1.2868-1.5234 2.0527l0.50781-0.26758c4.7014-3.3203 11.713-5.463 25.271 3.125 0 0-3.6626-7.0618-5.1211-8.7402-0.91919-1.049-3.2225-1.7256-5.6953-1.8242-0.37092-0.01479-0.74472-0.01577-1.1191-0.0039zm-1.3047 8.1914v2.3047c0.95331-0.60295 1.9451-1.1002 2.9473-1.5117-0.96553-0.35036-1.9532-0.62186-2.9473-0.79296zm43.736 10.441s1.5086 1.1172 2.8652 1.1172c0 0-0.90452 0.67877-1.6582 0.22656-0.74961-0.45222-1.207-1.3438-1.207-1.3438zm-41.098 0.94531c-1.0063 0.52961-1.8912 1.3088-2.6367 2.1113v1.8086c0.1874-0.26481 0.37186-0.53507 0.54297-0.86914 0.52962-1.0022 1.2464-2.0364 2.0938-3.0508zm-2.6367 9.5059v3.6172c1.4137-1.0755 2.0302-2.0377 3.0039-3.3984-0.7822 0.0122-1.7736-0.0395-3.0039-0.21875z" fill="#73000a"/>
  <g>
   <path d="m37.153 120.19c-1.6174 1.7559-2.5422 3.6829-2.5422 3.6829 0.06518-0.0448 0.56628 0.057 0.9085-0.17111 0.26481-0.18333 0.96146-0.74554 1.6337-1.7029v-1.8088z"/>
   <path d="m106.38 102.23s-0.21345 1.2415 0.084 1.7793c-0.13445-0.26888 0.41681 0.99041 1.6309 1.5078 0.52554 0.23221 1.9023-0.15821 1.9023-0.1582-1.0674-0.15074-1.4796-0.53869-2.1641-1.1172-1.0714-0.96146-1.4531-2.0117-1.4531-2.0117zm-2.9277 3.5078s-0.13917 1.9564 0.39453 2.7793c-0.0978-0.17926 1.5688 2.1057 3.5039 2.7168 0.87591 0.27295 2.3457-1.1152 2.3457-1.1152-1.6988 0.23222-1.7394-0.0696-3.6094-1.4141-1.87-1.3607-2.6348-2.9668-2.6348-2.9668zm4.4297 0.75391c-0.0814 0.11381 0.93883 0.88861 1.0488 1.4355 0.13851 0.74554 0.47622 1.1329 1.4336 1.748 0.95739 0.60295-0.28063-0.68218-0.39063-1.5703-0.11815-0.88813-1.0021-1.2546-1.5684-1.4746-0.34629-0.14157-0.49632-0.17661-0.52343-0.13867zm-8.125 1.0039c-0.08956 0.0829 1.2643 0.98019 1.3438 1.9121 0.11407 1.2385 0.61859 1.4675 1.8652 2.2578 1.2466 0.79036-0.56681-0.67232-0.50977-2.0371 0.0652-1.3526-1.2899-1.6349-2.0273-1.916-0.45119-0.18231-0.64202-0.24442-0.67187-0.2168zm15.061 2.3418c-0.34221 0.29333-0.39094 2.3013 2.9375 3.9023 2.8233 1.3607 5.3055 1.1899 5.1914 0.5625 0 0-2.7671-0.56191-4.6289-1.5723-1.8659-1.0226-3.5-2.8926-3.5-2.8926zm-16.111 2.2969c-0.24119 0.0235-0.42777 0.10675-0.49805 0.28906 0 0 0.61874 0.62362 0.67578 1.084 0.06111 0.44814 0.39975 0.84353-0.67578 0.89649-1.0755 0.057-5.1445-1.4102-5.1445-1.4102s3.9599 2.71 5.8828 2.8281c2.0329-0.11815 0.84728-2.1505 0.61914-2.7168-0.22814-0.56628 1.0742-0.56641 1.0742-0.56641s-1.21-0.47476-1.9336-0.40429zm9.7812 2.7969s0.34111 1.1827 1.3066 1.916c1.1244 0.96147 5.1877 2.5996 6.3203 2.5996s1.5234-1.8633 1.5234-1.8633c-1.9188 0.90035-2.4863 0.39254-5.1914-0.50781-2.7173-0.90035-3.959-2.1445-3.959-2.1445zm-27.602 2.207s0.45139 0.8935 1.2051 1.3457c0.75369 0.4522 1.6582-0.22852 1.6582-0.22852-1.3566 0-2.8633-1.1172-2.8633-1.1172zm23.365 1.3457c-0.16703 1.1326 0.39993 1.5222 1.9766 2.2637 1.0185 0.50517 2.0935 1.2426 3.6172 0 0 0-1.0152-0.0562-2.877-0.6836-1.87-0.61925-2.7168-1.5801-2.7168-1.5801zm-18.365 3.2109s0.3286 1.21 0.60156 1.4707c0.26888 0.25258 0.73424 0.39091 0.97461 0.28906 0.4074-0.004 1.1328-1.0879 1.1328-1.0879s-0.48123 0.61559-1.459 0.32226c-0.97776-0.2974-1.25-0.99414-1.25-0.99414zm5.3789 4.2617c-0.02852 0.30148-0.0418 2.0894-0.73438 1.959-0.6885-0.12222-1.752-1.5039-1.752-1.5039s0.77083 1.9517 1.9727 2.3184c1.3159 0.2363 0.54626-3.0586 0.51367-2.7734zm3.1953 6.6758c0.04074 0.29333 0.09542 1.5473-0.60938 1.584-0.69665 0.0407-2.5586-1.2344-2.5586-1.2344s1.7099 1.8992 2.9688 1.9766c1.324-0.0774 0.16663-2.6195 0.19922-2.3262z"/>
   <path d="m115.47 75.826s-4.3548 0.08142-6.4121 0.99805c-1.5889 0.71294-4.5669 2.7016-4.4121 3.3086 0.15481 0.5948 1.1624 0.6799 3.1016 0.76953 1.9433 0.0978 4.6914-0.95703 4.6914-0.95703s-3.4374 0.08105-3.4863-0.55859c-0.0489-0.65183 0.88048-1.4341 2.123-2.0859 1.2466-0.64369 4.3945-1.4746 4.3945-1.4746zm7.7832 1.9336s-3.664 1.6177-5.9414 2.127c-2.2692 0.50925-4.4922 0.37109-4.4922 0.37109s0.78125 0.60642 0.78125 1.2949c0 0.69665-1.1113 2.8848-1.1113 2.8848s3.3853-1.2102 5.8867-2.4609c2.2326-1.0755 4.9706-2.6483 4.877-4.2168zm0.082 5.1582c-0.42471-0.05232-1.3085 0.19127-1.5957 0.4082-1.3729 0.78628-3.0162 2.0486-4.6621 2.623-1.6378 0.58258-7.3398 1.25-7.3398 1.25 3.084 0.23629 6.416 1.8379 6.416 1.8379s-1.2255 1.4755-2.9121 3.0195c0 0 3.6706-1.4546 5.6465-2.9375 1.6866-1.21 4.3904-5.4097 4.6797-6.0371 0-0.09472-0.0908-0.14662-0.23242-0.16406z"/>
  </g>
  <g fill="#fff">
   <path d="m54.459 92.727c-0.22814 6.8606 2.8559 7.8383 2.8559 7.8383-1.8863-5.6465-1.2792-13.485 0.52962-18.606 0 0-3.1614 3.9151-3.3855 10.768"/>
   <path d="m65.376 88.06c1.4137-2.1959 2.4851-6.0214 2.5014-12.104 0.02037-6.0824-2.204-12.902-6.1884-15.685 3.6096 5.5691 5.8706 16.117 2.7092 23.947-0.36666 0.94517-4.8195 8.8935-2.8599 12.43 0.89628-3.6136 2.1022-5.9521 3.8377-8.588"/>
   <path d="m28.432 84.646c3.7399-0.64776 6.665 0.10592 10.617 3.084 0 0-2.5951-4.4366-6.1191-4.7095-2.6522-0.10185-4.4977 1.6255-4.4977 1.6255"/>
   <path d="m30.549 102.1c4.0088-0.92479 9.7531-1.3037 13.061 0.5011 0 0-1.6296-2.7784-4.8277-2.8314-3.1981-0.057-8.2335 2.3303-8.2335 2.3303"/>
  </g>
 </g>
</svg>
